<svg width="232" height="56" viewBox="0 0 232 56" fill="none" xmlns="http://www.w3.org/2000/svg">
<path d="M36 7.97363L56.7846 18.9802V40.9933L36 51.9998L15.2154 40.9933V18.9802L36 7.97363Z" fill="#009ED8"/>
<path d="M26.3555 35.6875V16.0823C28.592 13.5319 30.6374 15.0196 31.3806 16.0823V25.2069L54.4834 4.09921C57.6476 3.50556 58.1391 5.72076 57.9892 6.90257L26.3555 35.6875Z" fill="#0ACF83"/>
<path d="M26.3555 45.7611V39.5538L31.9253 34.7197L35.2193 37.6311L26.3555 45.7611Z" fill="white"/>
<path d="M48.4584 45.4139L34.2012 32.3576L47.6765 19.888C51.5095 19.4925 51.5095 21.8472 51.0304 23.0741L40.9322 32.3576L52.7824 43.1222L48.4584 45.4139Z" fill="white"/>
<path d="M73.7979 35V20.4545H76.4329V27.1378H76.6104L82.2852 20.4545H85.5025L79.8775 26.9815L85.5522 35H82.3846L78.0451 28.7642L76.4329 30.6676V35H73.7979ZM89.201 35H86.3885L91.5092 20.4545H94.7621L99.8899 35H97.0774L93.1925 23.4375H93.0788L89.201 35ZM89.2933 29.2969H96.9638V31.4134H89.2933V29.2969ZM113.759 20.4545V35H111.415L104.561 25.0923H104.441V35H101.806V20.4545H104.164L111.01 30.3693H111.138V20.4545H113.759ZM116.63 35V20.4545H122.198C123.249 20.4545 124.123 20.6203 124.819 20.9517C125.52 21.2784 126.043 21.7259 126.388 22.294C126.739 22.8622 126.914 23.5062 126.914 24.2259C126.914 24.8177 126.8 25.3243 126.573 25.7457C126.346 26.1624 126.04 26.5009 125.657 26.7614C125.273 27.0218 124.845 27.2088 124.371 27.3224V27.4645C124.888 27.4929 125.382 27.6515 125.856 27.9403C126.334 28.2244 126.725 28.6269 127.028 29.1477C127.331 29.6686 127.482 30.2983 127.482 31.0369C127.482 31.7898 127.3 32.4669 126.935 33.0682C126.571 33.6648 126.022 34.1359 125.288 34.4815C124.554 34.8272 123.63 35 122.518 35H116.63ZM119.265 32.7983H122.099C123.055 32.7983 123.744 32.616 124.165 32.2514C124.592 31.8821 124.805 31.4086 124.805 30.831C124.805 30.4001 124.698 30.0118 124.485 29.6662C124.272 29.3158 123.969 29.0412 123.576 28.8423C123.183 28.6387 122.714 28.5369 122.17 28.5369H119.265V32.7983ZM119.265 26.6406H121.871C122.326 26.6406 122.736 26.5578 123.1 26.392C123.465 26.2216 123.751 25.9825 123.96 25.6747C124.173 25.3622 124.279 24.9929 124.279 24.5668C124.279 24.0033 124.08 23.5393 123.683 23.1747C123.29 22.8101 122.705 22.6278 121.928 22.6278H119.265V26.6406ZM131.642 35H128.83L133.951 20.4545H137.203L142.331 35H139.519L135.634 23.4375H135.52L131.642 35ZM131.735 29.2969H139.405V31.4134H131.735V29.2969ZM156.2 20.4545V35H153.857L147.003 25.0923H146.882V35H144.247V20.4545H146.605L153.452 30.3693H153.58V20.4545H156.2Z" fill="#1570EF"/>
</svg>
