<svg width="251" height="363" viewBox="0 0 251 363" fill="none" xmlns="http://www.w3.org/2000/svg">
<path d="M125.5 22.6841L234.186 85.5131V211.171L125.5 274L16.8138 211.171V85.5131L125.5 22.6841Z" fill="#009ED8"/>
<path d="M75.0674 180.883V68.9699C86.7625 54.4111 97.4585 62.9037 101.345 68.9699V121.056L222.153 0.566344C238.699 -2.82243 241.269 9.82268 240.486 16.5688L75.0674 180.883Z" fill="#0ACF83"/>
<path d="M75.0674 238.386V202.953L104.193 175.358L121.418 191.978L75.0674 238.386Z" fill="white"/>
<path d="M190.647 236.405L116.094 161.875L186.559 90.6938C206.602 88.4361 206.602 101.878 204.097 108.881L151.292 161.875L213.258 223.322L190.647 236.405Z" fill="white"/>
<path d="M28.3714 352V317.818H34.5636V333.524H34.9808L48.3164 317.818H55.8771L42.6584 333.157L55.994 352H48.5501L38.3523 337.346L34.5636 341.819V352H28.3714ZM64.5686 352H57.9593L69.993 317.818H77.6372L89.6876 352H83.0782L73.9486 324.828H73.6816L64.5686 352ZM64.7856 338.598H82.8112V343.571H64.7856V338.598ZM122.28 317.818V352H116.772L100.666 328.717H100.382V352H94.1898V317.818H99.731L115.82 341.118H116.121V317.818H122.28ZM129.027 352V317.818H142.112C144.582 317.818 146.635 318.208 148.271 318.987C149.917 319.754 151.147 320.806 151.959 322.141C152.783 323.476 153.194 324.989 153.194 326.681C153.194 328.072 152.927 329.262 152.393 330.252C151.859 331.232 151.141 332.027 150.24 332.639C149.339 333.251 148.332 333.691 147.219 333.958V334.292C148.432 334.358 149.595 334.731 150.707 335.41C151.831 336.077 152.749 337.023 153.461 338.247C154.174 339.471 154.53 340.951 154.53 342.687C154.53 344.456 154.101 346.047 153.244 347.46C152.388 348.862 151.097 349.969 149.372 350.782C147.648 351.594 145.478 352 142.863 352H129.027ZM135.219 346.826H141.878C144.126 346.826 145.745 346.398 146.735 345.541C147.737 344.673 148.237 343.56 148.237 342.203C148.237 341.19 147.987 340.278 147.486 339.466C146.986 338.642 146.273 337.997 145.35 337.529C144.426 337.051 143.325 336.812 142.045 336.812H135.219V346.826ZM135.219 332.355H141.344C142.412 332.355 143.375 332.161 144.232 331.771C145.088 331.371 145.762 330.809 146.251 330.086C146.752 329.351 147.002 328.483 147.002 327.482C147.002 326.158 146.535 325.067 145.6 324.211C144.677 323.354 143.303 322.925 141.478 322.925H135.219V332.355ZM164.306 352H157.697L169.73 317.818H177.374L189.425 352H182.816L173.686 324.828H173.419L164.306 352ZM164.523 338.598H182.548V343.571H164.523V338.598ZM222.017 317.818V352H216.509L200.403 328.717H200.119V352H193.927V317.818H199.468L215.558 341.118H215.858V317.818H222.017Z" fill="#009ED8"/>
</svg>
